<svg height="512" viewBox="0 0 512 512" width="512" xmlns="http://www.w3.org/2000/svg"><g><path d="m360 216a104 104 0 1 0 -104 104 104.118 104.118 0 0 0 104-104zm-192 0a88 88 0 1 1 88 88 88.1 88.1 0 0 1 -88-88z"/><path d="m336 216a80 80 0 1 0 -80 80 80.091 80.091 0 0 0 80-80zm-144 0a64 64 0 1 1 64 64 64.072 64.072 0 0 1 -64-64z"/><path d="m288 216a32 32 0 1 0 -32 32 32.036 32.036 0 0 0 32-32zm-48 0a16 16 0 1 1 16 16 16.019 16.019 0 0 1 -16-16z"/><path d="m256 88a24 24 0 1 0 -24-24 24.027 24.027 0 0 0 24 24zm0-32a8 8 0 1 1 -8 8 8.009 8.009 0 0 1 8-8z"/><path d="m359.12 396.59a208.138 208.138 0 0 0 104.88-180.59c0-114.69-93.31-208-208-208s-208 93.31-208 208a208.12 208.12 0 0 0 103.59 179.84c-27.13 11.69-48.42 27.94-62.15 47.58a7.972 7.972 0 0 0 -1.44 4.58v48a8 8 0 0 0 8 8h320a8 8 0 0 0 8-8v-48a8.023 8.023 0 0 0 -1.77-5.02c-15.42-19.12-37.03-34.95-63.11-46.39zm-295.12-180.59c0-105.87 86.13-192 192-192s192 86.13 192 192-86.13 192-192 192-192-86.13-192-192zm344 272h-304v-8h304zm0-24h-304v-13.42c14.16-19.13 37.08-34.59 66.54-44.96a207.8 207.8 0 0 0 169.55.6c28.39 10.23 51.77 25.59 67.91 44.66z"/></g></svg>